<svg width="188" height="32" viewBox="0 0 188 32" fill="none" xmlns="http://www.w3.org/2000/svg">
<path d="M188.001 5.96094L180.969 18.7706V26.7654H175.637V18.83L168.605 5.96094H174.594L178.288 13.6586L182.012 5.96094H188.001Z" fill="#0C1815"/>
<path d="M159.249 5.96094C162.129 5.96094 164.532 6.96153 166.459 8.96273C168.405 10.9441 169.378 13.4109 169.378 16.3632C169.378 19.3154 168.405 21.7922 166.459 23.7934C164.532 25.7747 162.129 26.7654 159.249 26.7654H150.758V5.96094H159.249ZM159.249 21.6237C160.699 21.6237 161.88 21.1482 162.794 20.1971C163.708 19.2263 164.165 17.9483 164.165 16.3632C164.165 14.7781 163.708 13.51 162.794 12.5589C161.88 11.5881 160.699 11.1026 159.249 11.1026H156.24V21.6237H159.249Z" fill="#0C1815"/>
<path d="M144.934 24.0989C142.829 26.1793 140.247 27.2195 137.188 27.2195C134.129 27.2195 131.537 26.1793 129.412 24.0989C127.307 21.9986 126.254 19.4228 126.254 16.3715C126.254 13.3202 127.307 10.7543 129.412 8.67383C131.537 6.57357 134.129 5.52344 137.188 5.52344C140.247 5.52344 142.829 6.57357 144.934 8.67383C147.059 10.7543 148.122 13.3202 148.122 16.3715C148.122 19.4228 147.059 21.9986 144.934 24.0989ZM133.166 20.4432C134.238 21.4934 135.579 22.0184 137.188 22.0184C138.797 22.0184 140.137 21.4934 141.21 20.4432C142.282 19.3733 142.819 18.016 142.819 16.3715C142.819 14.7269 142.282 13.3796 141.21 12.3295C140.137 11.2595 138.797 10.7246 137.188 10.7246C135.579 10.7246 134.238 11.2595 133.166 12.3295C132.093 13.3796 131.557 14.7269 131.557 16.3715C131.557 18.016 132.093 19.3733 133.166 20.4432Z" fill="#0C1815"/>
<path d="M126.086 5.96094V11.1026H120.932V26.7654H115.599V11.1026H110.445V5.96094H126.086Z" fill="#0C1815"/>
<path d="M104.595 21.6237H111.775V26.7654H99.2617V5.96094H104.595V21.6237Z" fill="#0C1815"/>
<path d="M93.6891 25.2199C92.1598 26.5475 90.1835 27.2112 87.7604 27.2112C85.3373 27.2112 83.3511 26.5475 81.8018 25.2199C80.2725 23.8924 79.5078 22.129 79.5078 19.9297V5.96094H84.8407V19.4244C84.8407 21.168 85.8139 22.0398 87.7604 22.0398C89.7068 22.0398 90.6801 21.168 90.6801 19.4244V5.96094H96.013V19.9297C96.013 22.129 95.2384 23.8924 93.6891 25.2199Z" fill="#0C1815"/>
<path d="M71.9707 23.7636L72.8645 26.7654H78.6145L71.7324 5.96094H65.2376L58.3555 26.7654H64.1353L65.029 23.7636L66.3995 19.1866L68.485 12.1131L70.6003 19.1866L71.9707 23.7636Z" fill="#0C1815"/>
<path d="M46.4597 26.7654L39.7266 5.96094H45.5659L49.6177 20.2863L53.6993 5.96094H59.5387L52.8056 26.7654H46.4597Z" fill="#0C1815"/>
<path d="M19.7207 15.063C19.7207 17.8462 17.4589 20.1025 14.6689 20.1025C11.8789 20.1025 9.61719 17.8462 9.61719 15.063C9.61719 12.2797 11.8789 10.0234 14.6689 10.0234C17.4589 10.0234 19.7207 12.2797 19.7207 15.063Z" fill="#D0FF00"/>
<path d="M0 15.4616V7.5L6.00581 10.5163V15.6658C6.00581 18.8366 7.66273 21.7781 10.3776 23.427L12.8894 24.9525C13.9505 25.597 15.2818 25.6037 16.3495 24.97L18.9716 23.4137C21.7315 21.7756 23.4227 18.8086 23.4227 15.6049V10.5163L29.2283 7.5V15.4616C29.2283 20.8642 26.3433 25.8575 21.6572 28.5657L16.6696 31.448C15.3983 32.1828 13.83 32.1828 12.5587 31.448L7.57107 28.5657C2.88501 25.8575 0 20.8642 0 15.4616Z" fill="#0C1815"/>
<path d="M10.4652 7.95823L4.41797 4.95896L12.797 0.484398C13.9939 -0.154787 15.4303 -0.161785 16.6335 0.465709L25.2486 4.95896L19.403 7.95823L15.3698 6.13435C14.9526 5.94571 14.4724 5.95503 14.0629 6.15974L10.4652 7.95823Z" fill="#0C1815"/>
</svg>
